<svg xmlns="http://www.w3.org/2000/svg" viewBox="100 0 400 510" fill="currentColor" fill-rule="evenodd">
<!-- Main face outline -->
<path d="
M208.000000,1.000001
	C282.687561,1.000000 357.375122,1.000000 432.570984,1.419038
	C432.041718,2.181041 431.019165,2.761748 429.964050,2.828684
	C422.693604,3.289922 415.406403,3.517027 408.145142,4.082832
	C404.180817,4.391735 400.256622,5.215817 395.336578,5.954329
	C399.182068,10.595385 402.246826,13.587423 407.773743,12.522282
	C419.975739,17.185041 429.291809,25.264191 437.879883,34.276661
	C450.603760,47.629391 460.417511,62.950199 466.016907,80.494888
	C470.358459,94.098373 473.251404,108.164192 476.512329,122.289169
	C476.236420,143.930801 476.236420,165.307785 476.236420,187.001114
	C471.186554,187.001114 466.117035,186.412292 461.244263,187.140457
	C454.106171,188.207077 446.747406,189.328842 440.132233,192.022385
	C428.753052,196.655731 421.504456,209.433823 423.240265,220.577438
	C425.411499,234.516449 428.068756,248.380997 430.598999,262.262604
	C435.538940,289.364502 441.200043,316.356720 445.272491,343.587250
	C447.906006,361.196442 443.453796,377.789612 428.776276,389.288849
	C416.520355,398.890900 403.471283,407.591339 390.205658,415.770020
	C365.121429,431.235352 339.948425,446.537811 318.044983,466.450836
	C304.006073,479.213959 288.148743,488.529694 269.968414,493.875549
	C250.239746,499.676727 229.928131,501.702118 209.522369,503.135193
	C207.923203,503.247498 206.375946,504.099121 204.352814,504.630951
	C201.405487,504.657867 198.908844,504.710907 196.414612,504.655365
	C186.567413,504.436188 176.970871,503.196503 167.782089,499.182556
	C151.543457,492.089050 143.477478,479.673187 142.057785,462.224457
	C139.407928,429.656647 137.290024,397.011414 130.397263,364.843201
	C130.235306,364.059998 129.842667,363.419464 129.380508,362.482788
	C129.300583,361.781158 129.290176,361.375671 129.530792,360.721191
	C127.743767,350.395416 125.850204,340.286621 123.625618,330.251251
	C121.549026,320.883453 124.522202,313.824585 132.028671,307.975433
	C142.026520,300.184906 153.335785,295.138031 165.090027,290.853241
	C190.032578,281.760895 215.801910,275.995056 242.148331,273.442261
	C253.440155,272.348206 265.110321,272.738556 276.359741,274.275604
	C288.798248,275.975159 296.463684,284.140442 298.127869,296.941528
	C299.046539,304.007812 299.141907,311.181854 300.080231,318.244629
	C301.009827,325.241211 303.280060,326.212219 309.318970,322.824036
	C310.911102,321.930725 312.466400,320.939880 313.921631,319.839142
	C341.528961,298.957245 364.435516,273.721069 383.283508,244.751129
	C389.731842,234.839828 396.549957,224.840805 397.493896,212.741196
	C398.252472,203.017654 397.242828,193.160049 397.091339,183.360794
	C396.786285,163.629456 388.350739,148.005005 373.597443,135.225082
	C366.566101,129.134262 360.126434,122.343124 353.603485,115.688126
	C348.287201,110.264168 346.600677,103.822334 349.003052,96.411591
	C351.258484,89.454147 353.649780,82.516357 355.403290,75.426956
	C357.449829,67.152832 355.929596,62.629765 348.437683,58.636860
	C331.472107,49.594852 312.954529,44.320438 293.930237,44.501476
	C274.929840,44.682281 255.844559,47.256638 237.004211,50.139297
	C212.082001,53.952503 187.381622,59.198921 162.538239,63.557724
	C157.513794,64.439262 154.566513,67.280602 152.228745,71.258598
	C150.210739,74.692467 148.260681,78.175011 146.465469,81.729424
	C140.850113,92.847466 135.481140,104.094002 129.645355,115.093735
	C128.239792,117.743057 125.399658,119.631294 123.239861,121.498352
	C123.586761,120.380928 124.028656,119.663452 124.222488,118.884262
	C129.467773,97.798622 138.790649,78.441788 149.702805,59.834801
	C160.243835,41.860645 172.856018,25.577240 190.219513,13.504850
	C196.168625,9.368603 202.074417,5.170076 208.000000,1.000001
M225.517197,327.683838
	C225.166504,327.688324 224.815811,327.692780 223.883545,327.301544
	C223.182037,327.709625 222.480530,328.117706 220.954529,328.663574
	C215.273499,329.801819 209.513031,330.643463 203.927765,332.139221
	C191.832794,335.378387 179.791122,338.834503 167.826675,342.523071
	C166.127426,343.046967 163.808990,345.438385 163.894836,346.835327
	C163.989151,348.370117 166.292297,350.455597 168.058655,351.062561
	C172.095230,352.449524 176.349228,353.569275 180.589340,353.935181
	C199.090897,355.531799 216.835754,352.014679 234.474213,345.779694
	C242.099075,342.181580 249.890656,338.889954 257.285126,334.868225
	C261.591553,332.526001 265.428406,329.206238 269.164612,325.966522
	C272.049530,323.464966 271.003540,321.101990 267.623993,320.161041
	C265.276703,319.507446 262.655914,319.111023 260.274048,319.441345
	C252.888824,320.465576 245.501282,321.632751 238.230637,323.262054
	C234.051254,324.198608 230.096298,326.136688 225.517197,327.683838z"/>
<!-- Hair detail -->
<path d="
M114.022842,180.403107
	C120.472061,177.583481 126.537132,174.283447 133.020554,172.734421
	C138.315735,171.469315 144.173431,171.733780 149.666168,172.350037
	C155.267151,172.978455 158.970596,177.090622 161.881577,181.764282
	C163.777664,184.808487 162.680557,186.783279 159.415436,186.812836
	C143.493790,186.957047 130.146225,194.527878 116.456238,201.220276
	C113.963531,202.438828 111.216644,203.137436 108.183380,204.027161
	C107.181206,195.535034 108.043602,187.470505 114.022842,180.403107z"/>
<!-- Eyebrow/face detail -->
<path d="
M312.116760,152.338287
	C306.347443,152.784470 300.890869,153.521301 295.512329,153.144501
	C272.482208,151.531128 250.196701,155.417160 228.116150,161.404007
	C223.331802,162.701218 218.394775,163.631531 213.466980,164.148697
	C208.493164,164.670731 206.488861,162.472321 208.640320,157.978516
	C210.758072,153.555145 214.008209,149.114105 217.902115,146.210449
	C227.846695,138.794830 239.844925,136.072678 251.843460,134.191742
	C264.701141,132.176102 277.792114,131.519379 290.458069,134.974976
	C297.377838,136.862839 303.963684,140.334473 310.304657,143.812805
	C312.969116,145.274414 316.596680,148.115738 312.116760,152.338287z"/>
</svg>
