<svg xmlns="http://www.w3.org/2000/svg" width="148" height="148" viewBox="0 0 148 148">
<g>
<path d="M 62.30 0.00 L 120.44 0.00 C102.32,0.00 93.09,0.34 93.50,1.00 C93.84,1.55 94.70,2.00 95.41,2.00 C97.54,2.00 103.05,7.91 105.07,12.35 C106.35,15.17 106.96,18.82 106.98,23.75 L 107.00 31.00 L 104.07 31.00 C100.72,31.00 98.00,33.26 98.00,36.04 C98.00,37.09 98.96,42.31 100.13,47.65 C103.22,61.67 102.66,63.24 92.50,69.16 C88.10,71.72 82.98,75.26 81.11,77.02 C76.55,81.33 72.50,82.86 63.81,83.58 C57.38,84.11 56.18,83.93 53.86,82.10 C51.50,80.25 51.16,79.17 50.74,72.26 C50.47,67.99 49.65,61.86 48.90,58.64 C47.58,52.94 47.60,52.74 49.87,50.90 C52.78,48.55 60.79,46.11 68.00,45.38 C74.72,44.70 77.33,46.24 77.33,50.86 C77.33,52.59 77.66,54.00 78.06,54.00 C79.88,54.00 87.16,46.98 90.49,42.00 C93.85,36.99 94.14,36.02 93.75,31.09 C93.36,26.27 92.85,25.25 89.12,21.77 C85.02,17.95 84.95,17.77 86.16,14.43 C87.66,10.28 87.05,9.53 80.85,7.88 C76.95,6.84 74.47,6.92 65.37,8.41 C59.41,9.38 54.14,10.42 53.65,10.71 C53.17,11.01 51.72,13.56 50.44,16.38 C49.16,19.20 48.10,20.83 48.08,20.00 C48.04,18.42 50.73,12.58 53.82,7.50 C54.83,5.85 57.15,3.49 58.97,2.25 L 62.30 0.00 ZM 76.25 25.35 C74.19,25.10 70.12,25.53 67.20,26.31 C62.42,27.59 61.93,27.58 62.21,26.14 C62.89,22.62 73.43,20.55 78.07,23.04 C81.19,24.71 80.29,25.85 76.25,25.35 ZM 55.08 58.07 C57.40,59.54 63.22,59.08 67.63,57.08 C74.97,53.75 74.03,51.82 66.12,53.99 C64.13,54.53 60.51,55.47 58.08,56.07 C54.84,56.88 54.04,57.41 55.08,58.07 ZM 48.64 32.51 C45.13,34.33 45.00,34.34 45.00,32.62 C45.00,29.36 51.86,26.92 53.95,29.44 C55.05,30.76 54.96,31.00 53.37,31.01 C52.34,31.01 50.21,31.68 48.64,32.51 Z" fill="currentColor"/>
<path d="M -0.00 68.96 L 0.00 0.00 L 31.15 -0.00 L 62.30 -0.00 L 58.97 2.25 C53.42,6.01 47.63,17.09 47.55,24.10 C47.52,26.62 46.94,29.37 46.25,30.20 C45.53,31.07 45.21,33.13 45.50,35.10 C45.78,36.97 46.14,41.88 46.31,46.00 C46.49,50.12 47.45,55.75 48.45,58.50 C49.45,61.25 50.49,67.22 50.76,71.78 C51.20,79.12 51.54,80.28 53.76,82.03 C55.36,83.29 57.80,84.00 60.51,84.00 C64.46,84.00 64.79,84.21 65.38,87.12 C65.72,88.84 66.00,92.12 66.00,94.41 C66.00,98.47 65.85,98.66 59.64,102.23 C56.15,104.24 50.79,108.16 47.75,110.94 C44.71,113.72 41.52,116.00 40.66,116.00 C38.74,116.00 34.34,117.85 31.00,120.06 C29.62,120.97 26.48,122.02 24.00,122.39 C17.20,123.41 9.78,127.46 4.63,132.97 L -0.00 137.91 L -0.00 68.96 ZM 145.92 92.98 C141.72,90.62 125.78,84.71 120.01,83.36 C116.44,82.53 112.92,81.35 112.19,80.74 C109.65,78.63 107.22,72.46 106.11,65.31 C104.34,53.84 104.65,49.61 107.57,45.30 C109.36,42.67 109.96,40.75 109.56,39.01 C109.24,37.63 108.55,32.11 108.03,26.74 C106.69,12.89 102.65,5.05 95.14,1.68 C93.01,0.73 97.83,0.45 119.90,0.23 C134.97,0.09 147.46,0.13 147.66,0.33 C147.86,0.52 147.90,21.65 147.76,47.27 C147.53,89.35 147.35,93.77 145.92,92.98 ZM 55.08 58.13 C53.51,57.07 57.73,55.64 66.00,54.42 L 70.50 53.76 L 68.33 56.02 C65.95,58.50 57.60,59.83 55.08,58.13 Z" fill="currentColor"/>
</g>
</svg>
