<svg version="1.1" id="Layer_1" xmlns="http://www.w3.org/2000/svg" xmlns:xlink="http://www.w3.org/1999/xlink" x="0px" y="0px"
	 width="100%" viewBox="0 0 569 509" enable-background="new 0 0 569 509" xml:space="preserve">
<path fill="#181818" opacity="1.000000" stroke="none" 
	d="
M208.000000,1.000001 
	C282.687561,1.000000 357.375122,1.000000 432.570984,1.419038 
	C432.041718,2.181041 431.019165,2.761748 429.964050,2.828684 
	C422.693604,3.289922 415.406403,3.517027 408.145142,4.082832 
	C404.180817,4.391735 400.256622,5.215817 395.336578,5.954329 
	C399.182068,10.595385 402.246826,13.587423 407.773743,12.522282 
	C419.975739,17.185041 429.291809,25.264191 437.879883,34.276661 
	C450.603760,47.629391 460.417511,62.950199 466.016907,80.494888 
	C470.358459,94.098373 473.251404,108.164192 476.512329,122.289169 
	C476.236420,143.930801 476.236420,165.307785 476.236420,187.001114 
	C471.186554,187.001114 466.117035,186.412292 461.244263,187.140457 
	C454.106171,188.207077 446.747406,189.328842 440.132233,192.022385 
	C428.753052,196.655731 421.504456,209.433823 423.240265,220.577438 
	C425.411499,234.516449 428.068756,248.380997 430.598999,262.262604 
	C435.538940,289.364502 441.200043,316.356720 445.272491,343.587250 
	C447.906006,361.196442 443.453796,377.789612 428.776276,389.288849 
	C416.520355,398.890900 403.471283,407.591339 390.205658,415.770020 
	C365.121429,431.235352 339.948425,446.537811 318.044983,466.450836 
	C304.006073,479.213959 288.148743,488.529694 269.968414,493.875549 
	C250.239746,499.676727 229.928131,501.702118 209.522369,503.135193 
	C207.923203,503.247498 206.375946,504.099121 204.352814,504.630951 
	C201.405487,504.657867 198.908844,504.710907 196.414612,504.655365 
	C186.567413,504.436188 176.970871,503.196503 167.782089,499.182556 
	C151.543457,492.089050 143.477478,479.673187 142.057785,462.224457 
	C139.407928,429.656647 137.290024,397.011414 130.397263,364.843201 
	C130.235306,364.059998 129.842667,363.419464 129.380508,362.482788 
	C129.300583,361.781158 129.290176,361.375671 129.530792,360.721191 
	C127.743767,350.395416 125.850204,340.286621 123.625618,330.251251 
	C121.549026,320.883453 124.522202,313.824585 132.028671,307.975433 
	C142.026520,300.184906 153.335785,295.138031 165.090027,290.853241 
	C190.032578,281.760895 215.801910,275.995056 242.148331,273.442261 
	C253.440155,272.348206 265.110321,272.738556 276.359741,274.275604 
	C288.798248,275.975159 296.463684,284.140442 298.127869,296.941528 
	C299.046539,304.007812 299.141907,311.181854 300.080231,318.244629 
	C301.009827,325.241211 303.280060,326.212219 309.318970,322.824036 
	C310.911102,321.930725 312.466400,320.939880 313.921631,319.839142 
	C341.528961,298.957245 364.435516,273.721069 383.283508,244.751129 
	C389.731842,234.839828 396.549957,224.840805 397.493896,212.741196 
	C398.252472,203.017654 397.242828,193.160049 397.091339,183.360794 
	C396.786285,163.629456 388.350739,148.005005 373.597443,135.225082 
	C366.566101,129.134262 360.126434,122.343124 353.603485,115.688126 
	C348.287201,110.264168 346.600677,103.822334 349.003052,96.411591 
	C351.258484,89.454147 353.649780,82.516357 355.403290,75.426956 
	C357.449829,67.152832 355.929596,62.629765 348.437683,58.636860 
	C331.472107,49.594852 312.954529,44.320438 293.930237,44.501476 
	C274.929840,44.682281 255.844559,47.256638 237.004211,50.139297 
	C212.082001,53.952503 187.381622,59.198921 162.538239,63.557724 
	C157.513794,64.439262 154.566513,67.280602 152.228745,71.258598 
	C150.210739,74.692467 148.260681,78.175011 146.465469,81.729424 
	C140.850113,92.847466 135.481140,104.094002 129.645355,115.093735 
	C128.239792,117.743057 125.399658,119.631294 123.239861,121.498352 
	C123.586761,120.380928 124.028656,119.663452 124.222488,118.884262 
	C129.467773,97.798622 138.790649,78.441788 149.702805,59.834801 
	C160.243835,41.860645 172.856018,25.577240 190.219513,13.504850 
	C196.168625,9.368603 202.074417,5.170076 208.000000,1.000001 
M225.517197,327.683838 
	C225.166504,327.688324 224.815811,327.692780 223.883545,327.301544 
	C223.182037,327.709625 222.480530,328.117706 220.954529,328.663574 
	C215.273499,329.801819 209.513031,330.643463 203.927765,332.139221 
	C191.832794,335.378387 179.791122,338.834503 167.826675,342.523071 
	C166.127426,343.046967 163.808990,345.438385 163.894836,346.835327 
	C163.989151,348.370117 166.292297,350.455597 168.058655,351.062561 
	C172.095230,352.449524 176.349228,353.569275 180.589340,353.935181 
	C199.090897,355.531799 216.835754,352.014679 234.474213,345.779694 
	C242.099075,342.181580 249.890656,338.889954 257.285126,334.868225 
	C261.591553,332.526001 265.428406,329.206238 269.164612,325.966522 
	C272.049530,323.464966 271.003540,321.101990 267.623993,320.161041 
	C265.276703,319.507446 262.655914,319.111023 260.274048,319.441345 
	C252.888824,320.465576 245.501282,321.632751 238.230637,323.262054 
	C234.051254,324.198608 230.096298,326.136688 225.517197,327.683838 
z"/>
<path fill="#FEFEFE" opacity="1.000000" stroke="none" 
	d="
M207.531342,1.000001 
	C202.074417,5.170076 196.168625,9.368603 190.219513,13.504850 
	C172.856018,25.577240 160.243835,41.860645 149.702805,59.834801 
	C138.790649,78.441788 129.467773,97.798622 124.222488,118.884262 
	C124.028656,119.663452 123.586761,120.380928 123.272850,121.924332 
	C122.328644,129.569443 120.889549,136.391510 120.520470,143.270966 
	C119.846497,155.833435 118.589920,168.225708 114.022842,180.403107 
	C108.043602,187.470505 107.181206,195.535034 107.652390,204.320679 
	C107.546501,205.814575 107.504181,206.971298 107.598816,208.116699 
	C109.089043,226.154068 111.044968,244.166489 111.991386,262.231934 
	C113.279633,286.822266 115.243629,311.301544 121.080406,335.272369 
	C123.202400,343.987122 126.512024,352.412689 129.279785,360.970215 
	C129.290176,361.375671 129.300583,361.781158 129.271088,362.807678 
	C129.542984,363.947784 129.854782,364.466827 130.166595,364.985901 
	C137.290024,397.011414 139.407928,429.656647 142.057785,462.224457 
	C143.477478,479.673187 151.543457,492.089050 167.782089,499.182556 
	C176.970871,503.196503 186.567413,504.436188 196.414612,504.655365 
	C198.908844,504.710907 201.405487,504.657867 204.772217,504.790710 
	C207.463531,505.068756 209.413528,504.842010 211.077347,505.427979 
	C214.793991,506.736847 218.367935,508.450958 222.000000,510.000000 
	C148.367737,510.000000 74.735481,510.000000 1.051610,510.000000 
	C1.051610,340.446991 1.051610,170.893982 1.051610,1.000000 
	C69.687187,1.000000 138.374939,1.000000 207.531342,1.000001 
z"/>
<path fill="#FEFEFE" opacity="1.000000" stroke="none" 
	d="
M476.788269,122.024506 
	C473.251404,108.164192 470.358459,94.098373 466.016907,80.494888 
	C460.417511,62.950199 450.603760,47.629391 437.879883,34.276661 
	C429.291809,25.264191 419.975739,17.185041 407.541504,12.264628 
	C405.784149,10.975979 404.598114,10.069503 403.412109,9.163028 
	C403.523071,8.707388 403.634064,8.251749 403.745026,7.796109 
	C406.917450,7.209630 410.073273,6.234478 413.264923,6.098240 
	C438.492065,5.021409 463.720093,3.880286 488.959778,3.208865 
	C509.402283,2.665059 529.861755,2.771600 550.312195,2.484090 
	C551.548157,2.466713 552.771057,1.516274 554.000000,0.999997 
	C559.328857,1.000000 564.657654,1.000000 569.993286,1.000000 
	C570.000000,168.687561 570.000000,336.375122 569.604492,504.502625 
	C551.659424,499.833038 534.112305,494.715363 516.559326,489.617798 
	C509.082062,487.446350 504.070221,482.236023 499.892731,476.055420 
	C488.267548,458.856049 481.906403,439.473541 477.063568,419.565491 
	C470.606415,393.021362 467.207092,365.984924 465.401947,338.762512 
	C463.782471,314.340881 466.941711,291.086029 481.872131,270.462250 
	C491.176300,257.610168 494.174561,243.651718 491.359833,227.205063 
	C486.601837,199.403748 484.434021,171.164246 480.924622,143.140610 
	C480.035461,136.040588 478.192780,129.059982 476.788269,122.024506 
z"/>
<path fill="#757575" opacity="1.000000" stroke="none" 
	d="
M476.512329,122.289169 
	C478.192780,129.059982 480.035461,136.040588 480.924622,143.140610 
	C484.434021,171.164246 486.601837,199.403748 491.359833,227.205063 
	C494.174561,243.651718 491.176300,257.610168 481.872131,270.462250 
	C466.941711,291.086029 463.782471,314.340881 465.401947,338.762512 
	C467.207092,365.984924 470.606415,393.021362 477.063568,419.565491 
	C481.906403,439.473541 488.267548,458.856049 499.892731,476.055420 
	C504.070221,482.236023 509.082062,487.446350 516.559326,489.617798 
	C534.112305,494.715363 551.659424,499.833038 569.604492,504.971283 
	C570.000000,506.664612 570.000000,508.329193 570.000000,509.996887 
	C454.312439,510.000000 338.624878,510.000000 222.468658,510.000000 
	C218.367935,508.450958 214.793991,506.736847 211.077347,505.427979 
	C209.413528,504.842010 207.463531,505.068756 205.223999,504.766968 
	C206.375946,504.099121 207.923203,503.247498 209.522369,503.135193 
	C229.928131,501.702118 250.239746,499.676727 269.968414,493.875549 
	C288.148743,488.529694 304.006073,479.213959 318.044983,466.450836 
	C339.948425,446.537811 365.121429,431.235352 390.205658,415.770020 
	C403.471283,407.591339 416.520355,398.890900 428.776276,389.288849 
	C443.453796,377.789612 447.906006,361.196442 445.272491,343.587250 
	C441.200043,316.356720 435.538940,289.364502 430.598999,262.262604 
	C428.068756,248.380997 425.411499,234.516449 423.240265,220.577438 
	C421.504456,209.433823 428.753052,196.655731 440.132233,192.022385 
	C446.747406,189.328842 454.106171,188.207077 461.244263,187.140457 
	C466.117035,186.412292 471.186554,187.001114 476.236420,187.001114 
	C476.236420,165.307785 476.236420,143.930801 476.512329,122.289169 
z"/>
<path fill="#727272" opacity="1.000000" stroke="none" 
	d="
M553.531372,0.999997 
	C552.771057,1.516274 551.548157,2.466713 550.312195,2.484090 
	C529.861755,2.771600 509.402283,2.665059 488.959778,3.208865 
	C463.720093,3.880286 438.492065,5.021409 413.264923,6.098240 
	C410.073273,6.234478 406.917450,7.209630 403.745026,7.796109 
	C403.634064,8.251749 403.523071,8.707388 403.412109,9.163028 
	C404.598114,10.069503 405.784149,10.975979 407.202393,12.140106 
	C402.246826,13.587423 399.182068,10.595385 395.336578,5.954329 
	C400.256622,5.215817 404.180817,4.391735 408.145142,4.082832 
	C415.406403,3.517027 422.693604,3.289922 429.964050,2.828684 
	C431.019165,2.761748 432.041718,2.181041 433.039673,1.419038 
	C473.020905,1.000000 513.041809,1.000000 553.531372,0.999997 
z"/>
<path fill="#757575" opacity="1.000000" stroke="none" 
	d="
M129.530792,360.721191 
	C126.512024,352.412689 123.202400,343.987122 121.080406,335.272369 
	C115.243629,311.301544 113.279633,286.822266 111.991386,262.231934 
	C111.044968,244.166489 109.089043,226.154068 107.598816,208.116699 
	C107.504181,206.971298 107.546501,205.814575 108.056107,204.369598 
	C111.216644,203.137436 113.963531,202.438828 116.456238,201.220276 
	C130.146225,194.527878 143.493790,186.957047 159.415436,186.812836 
	C162.680557,186.783279 163.777664,184.808487 161.881577,181.764282 
	C158.970596,177.090622 155.267151,172.978455 149.666168,172.350037 
	C144.173431,171.733780 138.315735,171.469315 133.020554,172.734421 
	C126.537132,174.283447 120.472061,177.583481 114.226105,180.126434 
	C118.589920,168.225708 119.846497,155.833435 120.520470,143.270966 
	C120.889549,136.391510 122.328644,129.569443 123.252235,122.295517 
	C125.399658,119.631294 128.239792,117.743057 129.645355,115.093735 
	C135.481140,104.094002 140.850113,92.847466 146.465469,81.729424 
	C148.260681,78.175011 150.210739,74.692467 152.228745,71.258598 
	C154.566513,67.280602 157.513794,64.439262 162.538239,63.557724 
	C187.381622,59.198921 212.082001,53.952503 237.004211,50.139297 
	C255.844559,47.256638 274.929840,44.682281 293.930237,44.501476 
	C312.954529,44.320438 331.472107,49.594852 348.437683,58.636860 
	C355.929596,62.629765 357.449829,67.152832 355.403290,75.426956 
	C353.649780,82.516357 351.258484,89.454147 349.003052,96.411591 
	C346.600677,103.822334 348.287201,110.264168 353.603485,115.688126 
	C360.126434,122.343124 366.566101,129.134262 373.597443,135.225082 
	C388.350739,148.005005 396.786285,163.629456 397.091339,183.360794 
	C397.242828,193.160049 398.252472,203.017654 397.493896,212.741196 
	C396.549957,224.840805 389.731842,234.839828 383.283508,244.751129 
	C364.435516,273.721069 341.528961,298.957245 313.921631,319.839142 
	C312.466400,320.939880 310.911102,321.930725 309.318970,322.824036 
	C303.280060,326.212219 301.009827,325.241211 300.080231,318.244629 
	C299.141907,311.181854 299.046539,304.007812 298.127869,296.941528 
	C296.463684,284.140442 288.798248,275.975159 276.359741,274.275604 
	C265.110321,272.738556 253.440155,272.348206 242.148331,273.442261 
	C215.801910,275.995056 190.032578,281.760895 165.090027,290.853241 
	C153.335785,295.138031 142.026520,300.184906 132.028671,307.975433 
	C124.522202,313.824585 121.549026,320.883453 123.625618,330.251251 
	C125.850204,340.286621 127.743767,350.395416 129.530792,360.721191 
M312.465424,152.116577 
	C316.596680,148.115738 312.969116,145.274414 310.304657,143.812805 
	C303.963684,140.334473 297.377838,136.862839 290.458069,134.974976 
	C277.792114,131.519379 264.701141,132.176102 251.843460,134.191742 
	C239.844925,136.072678 227.846695,138.794830 217.902115,146.210449 
	C214.008209,149.114105 210.758072,153.555145 208.640320,157.978516 
	C206.488861,162.472321 208.493164,164.670731 213.466980,164.148697 
	C218.394775,163.631531 223.331802,162.701218 228.116150,161.404007 
	C250.196701,155.417160 272.482208,151.531128 295.512329,153.144501 
	C300.890869,153.521301 306.347443,152.784470 312.465424,152.116577 
z"/>
<path fill="#FAFAFA" opacity="1.000000" stroke="none" 
	d="
M234.032669,345.307159 
	C216.835754,352.014679 199.090897,355.531799 180.589340,353.935181 
	C176.349228,353.569275 172.095230,352.449524 168.058655,351.062561 
	C166.292297,350.455597 163.989151,348.370117 163.894836,346.835327 
	C163.808990,345.438385 166.127426,343.046967 167.826675,342.523071 
	C179.791122,338.834503 191.832794,335.378387 203.927765,332.139221 
	C209.513031,330.643463 215.273499,329.801819 221.671906,328.708069 
	C223.081223,328.400757 223.773178,328.049011 224.465118,327.697235 
	C224.815811,327.692780 225.166504,327.688324 226.102661,327.834351 
	C236.612335,326.599579 246.536560,325.214264 257.518707,323.681274 
	C256.339478,325.152039 255.933304,325.832031 255.369507,326.335449 
	C248.270462,332.674194 241.148651,338.987396 234.032669,345.307159 
z"/>
<path fill="#737373" opacity="1.000000" stroke="none" 
	d="
M234.253448,345.543427 
	C241.148651,338.987396 248.270462,332.674194 255.369507,326.335449 
	C255.933304,325.832031 256.339478,325.152039 257.518707,323.681274 
	C246.536560,325.214264 236.612335,326.599579 226.364212,327.804413 
	C230.096298,326.136688 234.051254,324.198608 238.230637,323.262054 
	C245.501282,321.632751 252.888824,320.465576 260.274048,319.441345 
	C262.655914,319.111023 265.276703,319.507446 267.623993,320.161041 
	C271.003540,321.101990 272.049530,323.464966 269.164612,325.966522 
	C265.428406,329.206238 261.591553,332.526001 257.285126,334.868225 
	C249.890656,338.889954 242.099075,342.181580 234.253448,345.543427 
z"/>
<path fill="#737373" opacity="1.000000" stroke="none" 
	d="
M224.174332,327.499390 
	C223.773178,328.049011 223.081223,328.400757 222.084152,328.639160 
	C222.480530,328.117706 223.182037,327.709625 224.174332,327.499390 
z"/>
<path fill="#757575" opacity="1.000000" stroke="none" 
	d="
M130.397263,364.843201 
	C129.854782,364.466827 129.542984,363.947784 129.340607,363.103821 
	C129.842667,363.419464 130.235306,364.059998 130.397263,364.843201 
z"/>
<path fill="#1B1B1B" opacity="1.000000" stroke="none" 
	d="
M114.022842,180.403107 
	C120.472061,177.583481 126.537132,174.283447 133.020554,172.734421 
	C138.315735,171.469315 144.173431,171.733780 149.666168,172.350037 
	C155.267151,172.978455 158.970596,177.090622 161.881577,181.764282 
	C163.777664,184.808487 162.680557,186.783279 159.415436,186.812836 
	C143.493790,186.957047 130.146225,194.527878 116.456238,201.220276 
	C113.963531,202.438828 111.216644,203.137436 108.183380,204.027161 
	C107.181206,195.535034 108.043602,187.470505 114.022842,180.403107 
z"/>
<path fill="#191919" opacity="1.000000" stroke="none" 
	d="
M312.116760,152.338287 
	C306.347443,152.784470 300.890869,153.521301 295.512329,153.144501 
	C272.482208,151.531128 250.196701,155.417160 228.116150,161.404007 
	C223.331802,162.701218 218.394775,163.631531 213.466980,164.148697 
	C208.493164,164.670731 206.488861,162.472321 208.640320,157.978516 
	C210.758072,153.555145 214.008209,149.114105 217.902115,146.210449 
	C227.846695,138.794830 239.844925,136.072678 251.843460,134.191742 
	C264.701141,132.176102 277.792114,131.519379 290.458069,134.974976 
	C297.377838,136.862839 303.963684,140.334473 310.304657,143.812805 
	C312.969116,145.274414 316.596680,148.115738 312.116760,152.338287 
z"/>
</svg>